<?xml version="1.0" encoding="UTF-8"?>
<svg id="Layer_1" data-name="Layer 1" xmlns="http://www.w3.org/2000/svg" viewBox="0 0 300.06 117.5">
  <defs>
    <style>
      .cls-1 {
        fill: #1f2e4d;
      }

      .cls-1, .cls-2 {
        stroke-width: 0px;
      }

      .cls-2 {
        fill: #eaae20;
      }
    </style>
  </defs>
  <path class="cls-1" d="M32.24,19.73c5.38,3.61,10.5,7.03,15.57,10.44-.05.79-.63,1.08-1.02,1.49-8.34,8.71-16.73,17.38-25.01,26.14-3.94,4.17-6.02,9.17-5.79,15.01.06,1.63.45,3.18.93,4.73-.49.12-.68-.22-.91-.45-2.84-2.88-5.76-5.69-8.5-8.66C1.96,62.4-.65,55.3.14,47.03c.26-2.74,1.28-5.07,3.15-7.11,4.84-5.25,9.96-10.21,15.1-15.16,5.93-5.71,11.85-11.45,17.91-17.02C52.1-6.75,77.56,0,83.81,20.44c3.37,11.03.93,21.02-7.15,29.3-8.52,8.74-17.3,17.23-25.97,25.83-.37.36-.74.72-1.12,1.06-7.75,6.75-10.83,15.13-8.83,25.3-.43.26-.63-.11-.86-.33-3.06-2.97-6.17-5.89-9.15-8.95-5.26-5.4-8.03-11.86-7.97-19.47.04-4.22,1.36-7.69,4.51-10.8,8.23-8.1,16.15-16.5,24.2-24.78.5-.51.89-1.15,1.76-1.47,3.59,5.07,7.19,10.16,10.87,15.35,1.75-1.14,2.95-2.72,4.35-4.08,2.44-2.37,2.41-2.39,1.15-5.5-1.71-4.22-3.39-8.46-5.17-12.65-.49-1.15-.45-1.95.38-2.95,2.53-3.06,4.84-6.3,7.41-9.32,1.2-1.41,1.5-2.9,1.55-4.64.09-3.36.15-3.3-3.14-2.68-1.88.36-3.37,1.16-4.67,2.6-2.21,2.46-4.66,4.7-6.9,7.14-.86.93-1.61.96-2.71.59-5.42-1.85-10.88-3.58-16.29-5.47-1.43-.5-2.41-.44-3.44.77-1.29,1.5-2.78,2.83-4.38,4.43Z"/>
  <path class="cls-2" d="M283.88,42c.47-1.34.33-2.22.33-3.09.01-9.56,0-19.12,0-28.68,0-.51.01-1.03,0-1.54,0-.74.37-1.07,1.09-1.07,3.9,0,7.79,0,11.69,0,.84,0,1.18.44,1.15,1.25-.02.51,0,1.03,0,1.54,0,17.21,0,34.42,0,51.63,0,.37,0,.74,0,1.1.02.85-.43,1.17-1.23,1.17-1.4,0-2.79,0-4.19,0-2.06,0-4.13-.11-6.18.03-1.66.11-2.65-.45-3.57-1.88-5.64-8.7-11.39-17.33-17.1-25.98-1.09-1.66-2.18-3.32-3.3-4.96-.27-.4-.4-.97-1.18-1.01-.37.72-.19,1.53-.19,2.29-.01,9.56,0,19.12,0,28.68,0,.44-.03.88,0,1.32.09,1.17-.49,1.52-1.58,1.51-3.53-.04-7.06,0-10.59-.02-1.55-.01-1.63-.1-1.65-1.63-.03-3.16,0-6.32,0-9.49,0-14.19,0-28.39,0-42.58,0-.51.03-1.03,0-1.54-.07-1.02.35-1.47,1.4-1.46,3.75.03,7.5.04,11.25-.01,1.18-.02,1.65.73,2.19,1.55,6.09,9.28,12.19,18.56,18.29,27.83,1.04,1.58,2.09,3.14,3.35,5.03Z"/>
  <path class="cls-1" d="M168.31,7.59c2.63,0,4.88,0,7.14,0,2.21,0,4.41.08,6.61-.03,1.36-.06,2.08.38,2.66,1.66,2.92,6.5,5.95,12.94,8.94,19.41.34.73.69,1.45,1.03,2.16.79-.16.82-.85,1.05-1.35,3.09-6.66,6.18-13.32,9.18-20.02.58-1.3,1.22-1.92,2.75-1.87,3.89.13,7.79.04,11.69.05.5,0,1,.04,1.47.07.3.77-.21,1.21-.46,1.7-5.92,11.49-11.85,22.97-17.81,34.44-.63,1.21-.93,2.41-.92,3.78.05,5,.03,10,.01,15,0,1.66-.03,1.68-1.69,1.69-3.38.01-6.76.01-10.14,0-1.94,0-1.96-.02-1.96-1.89,0-5-.04-10,.02-15,.01-1.3-.29-2.42-.88-3.56-5.86-11.27-11.69-22.56-17.52-33.85-.33-.65-.65-1.31-1.17-2.38Z"/>
  <path class="cls-1" d="M103.06,35.83c0-8.75,0-17.5,0-26.24,0-1.96.02-1.99,1.88-1.99,11.03,0,22.05,0,33.08,0,1.78,0,1.8.03,1.81,1.82.02,2.5.02,5,0,7.5-.01,1.74-.03,1.76-1.86,1.76-6.18,0-12.35,0-18.53,0-.51,0-1.03.02-1.54,0-.69-.02-1.1.2-1.09.99.02,3.31.02,6.62,0,9.92,0,1.17.82,1,1.53,1.01,3.9,0,7.79-.03,11.69.02,1.29.02,2.94-.6,3.78.37.72.83.19,2.4.21,3.65.03,1.62.02,3.23,0,4.85-.01,1.84-.02,1.86-1.98,1.86-4.26,0-8.53,0-12.79,0-.51,0-1.03.01-1.54,0-.65-.02-.91.31-.9.94.02.73,0,1.47,0,2.21,0,5.95,0,11.91,0,17.86,0,1.88-.02,1.89-1.95,1.9-3.31.01-6.62.01-9.92,0-1.86,0-1.87-.02-1.88-1.98,0-8.82,0-17.64,0-26.46Z"/>
  <path class="cls-1" d="M145.53,35.92c0-8.53,0-17.07,0-25.6,0-.44.04-.89,0-1.32-.11-1.05.3-1.44,1.37-1.42,2.57.05,5.15,0,7.72.02,1.47.02,3.36-.61,4.28.24,1.05.97.38,2.92.38,4.44.03,12.8.02,25.6.02,38.4,0,.44-.01.88,0,1.32.05,1.56.05,1.6,1.62,1.61,3.68.03,7.36,0,11.04,0,1.25,0,2.5-.01,3.75,0,1.6.02,1.63.04,1.64,1.52.02,2.57-.03,5.15.02,7.72.02,1.02-.28,1.41-1.38,1.41-9.64-.04-19.27-.01-28.91-.03-1.53,0-1.55-.05-1.55-1.86,0-8.83,0-17.66,0-26.48Z"/>
  <path class="cls-2" d="M55.49,117.5c-1.38-1.5-1.96-2.77-2.6-4-2.2-4.21-3.7-8.64-4.25-13.37-.72-6.16.97-11.49,5.34-15.93,4.9-4.98,9.82-9.94,14.74-14.91,1.78-1.8,1.86-1.81,3.39.34,5.13,7.24,6.25,15.07,3.33,23.46-1.17,3.36-2.84,6.38-5.44,8.94-4.45,4.39-8.7,8.97-13.02,13.5-.51.53-.89,1.17-1.48,1.97Z"/>
  <path class="cls-2" d="M225.18,35.92c0-8.39,0-16.77,0-25.16,0-.59.02-1.18,0-1.77-.03-.88.29-1.38,1.26-1.38,3.83.02,7.65.02,11.48.01.85,0,1.18.44,1.15,1.24-.02.44,0,.88,0,1.32,0,17.22,0,34.43,0,51.65,0,.44,0,.88,0,1.32,0,.84-.44,1.16-1.24,1.16-3.83-.01-7.65-.02-11.48,0-.87,0-1.15-.47-1.15-1.25,0-.59-.02-1.18-.02-1.77,0-8.46,0-16.92,0-25.38Z"/>
  <path class="cls-2" d="M123.95,90.99c.38.57,1.06.72,1.61,1.02,5.51,3.12,5.53,12.02.33,15.29-2.05,1.29-4.29,1.98-6.66,2.02-5.51.09-11.02.05-16.53.04-1.43,0-1.5-.1-1.51-1.75-.02-5.51,0-11.02,0-16.53,0-5.22-.01-10.43,0-15.65,0-1.83.03-1.87,1.79-1.88,4.99-.02,9.99,0,14.98.01,2.31,0,4.5.51,6.58,1.58,5.77,2.97,5.69,11.82.77,14.76-.48.29-1.12.41-1.36,1.08ZM114.07,102.32c1.14-.05,2.47.12,3.76-.18,2.42-.56,3.63-2.69,2.85-5.03-.55-1.65-1.86-2.42-3.48-2.6-1.16-.13-2.34-.08-3.51-.08q-3.83,0-3.83,3.82,0,4.08,4.21,4.07ZM114.01,80.56s0,.03,0,.04c-.96,0-1.91.02-2.87,0-.95-.02-1.3.45-1.28,1.36.03,1.62.01,3.24,0,4.85,0,.68.25,1.17,1,1.16,2.06-.02,4.12.2,6.17-.14,1.95-.32,2.95-1.56,2.96-3.51,0-2-1.11-3.34-3.12-3.62-.94-.13-1.91-.1-2.86-.14Z"/>
  <path class="cls-1" d="M233.49,95.58c-2.35,0-4.83,0-7.31,0-.74,0-1.47-.03-2.21,0-.86.03-1.16-.38-1.14-1.21.04-1.25.07-2.5-.01-3.75-.07-1.13.32-1.55,1.49-1.52,2.64.07,5.29.02,7.94.02,2.72,0,5.44.04,8.16-.02,1-.02,1.48.2,1.44,1.31-.07,2.13-.04,4.26-.02,6.4,0,.85-.31,1.59-.65,2.31-2.92,6.15-7.75,9.63-14.53,10.32-2.65.27-5.29.11-7.86-.66-6.91-2.05-11.66-7.79-12.32-15.1-.53-5.9.77-11.26,5.09-15.59,2.58-2.59,5.74-4.15,9.3-4.66,6.22-.89,12.05-.07,16.73,4.67,1.78,1.8,2.94,3.95,3.61,6.72-3.09,0-6,0-8.92,0-.6,0-.9-.37-1.24-.78-2.33-2.85-5.42-3.31-8.78-2.6-3.41.72-5.51,2.95-6.51,6.22-.77,2.52-.71,5.09,0,7.62,1.09,3.9,4.32,6.33,8.68,6.59,4.26.25,7.46-1.6,9.07-5.27.12-.27.27-.53-.03-1.03Z"/>
  <path class="cls-2" d="M170.72,91.45c0-5.22,0-10.44,0-15.65,0-2.21.01-2.24,2.16-2.24,4.56.01,9.13-.19,13.66.15,7.05.53,12.61,3.76,15.1,10.66,2.57,7.12,1.85,13.95-3.51,19.72-3.33,3.59-7.72,5.05-12.49,5.23-4.4.17-8.82.06-13.23.04-1.63,0-1.68-.07-1.69-1.81-.02-5.36,0-10.73,0-16.09ZM179.52,91.39c0,3.02.01,6.03,0,9.05,0,.89.26,1.39,1.24,1.38,2.2-.02,4.41.1,6.58-.51,4.05-1.15,6.51-4.46,6.7-9.07.22-5.25-1.93-9.05-6.01-10.48-.89-.31-1.85-.53-2.79-.61-1.39-.12-2.79-.06-4.19-.13-1.13-.06-1.56.4-1.54,1.55.05,2.94.02,5.88.02,8.83Z"/>
  <path class="cls-2" d="M164.66,85.75c0,2.94,0,5.88,0,8.83,0,1.7-.13,3.38-.59,5.02-1.24,4.42-4.01,7.46-8.32,9.04-4.23,1.55-8.52,1.57-12.73-.05-4.49-1.73-7.07-5.12-8.03-9.77-.27-1.29-.41-2.61-.41-3.94.01-6.4,0-12.8,0-19.2,0-2.08.02-2.1,2.03-2.14,1.69-.03,3.38-.04,5.07,0,1.67.03,1.7.05,1.7,1.77,0,5.88-.01,11.77-.01,17.65,0,1.32-.06,2.64.21,3.96.69,3.28,2.77,4.81,6.42,4.68,3.24-.12,5.28-1.89,5.71-5.02.13-.94.13-1.91.14-2.86.01-6.03,0-12.06.02-18.09,0-2.05.03-2.06,2.08-2.08,1.69-.02,3.38-.03,5.07,0,1.56.03,1.63.09,1.64,1.62.03,3.53,0,7.06,0,10.59h-.01Z"/>
  <path class="cls-1" d="M246.67,91.54c0-5.44,0-10.88,0-16.31,0-1.64.03-1.68,1.7-1.68,6.25-.02,12.49-.02,18.74,0,1.52,0,1.53.04,1.55,1.59.02,1.25.02,2.5,0,3.75-.03,1.61-.04,1.63-1.77,1.64-3.09.02-6.17,0-9.26,0-2.57,0-2.18-.02-2.2,2.31-.01,1.18.05,2.35-.02,3.53-.06,1.05.31,1.42,1.38,1.4,2.86-.06,5.73-.03,8.6-.02,1.76,0,1.83.03,1.77,1.83-.05,1.58.73,3.61-.38,4.62-.99.91-2.95.23-4.49.26-1.91.04-3.82.04-5.73,0-.84-.01-1.16.3-1.15,1.15.04,1.84.05,3.68,0,5.51-.03.98.36,1.26,1.29,1.25,3.16-.04,6.32-.01,9.48-.01.51,0,1.03.02,1.54,0,.82-.03.95.47.94,1.14-.01,1.54-.05,3.09.01,4.63.04,1.01-.43,1.24-1.33,1.23-3.38-.03-6.76-.01-10.14-.01-2.94,0-5.88.01-8.82,0-1.68-.01-1.72-.04-1.72-1.7-.02-5.36,0-10.73,0-16.09Z"/>
  <path class="cls-1" d="M281.9,95.06c0-4.34-.03-8.68.02-13.01.01-1.13-.31-1.57-1.48-1.54-2.2.07-4.41-.03-6.62.04-1.16.03-1.56-.4-1.5-1.54.07-1.47.04-2.94.02-4.41-.01-.73.27-1.1,1.03-1.06.07,0,.15,0,.22,0,8.38,0,16.76,0,25.15,0,.87,0,1.37.17,1.33,1.2-.07,1.54-.04,3.09,0,4.63.02.84-.3,1.18-1.16,1.17-2.13-.03-4.26,0-6.4,0-2.08,0-1.86-.07-1.86,1.95,0,7.79,0,15.59,0,23.38,0,.51,0,1.03,0,1.54-.03,1.9-.03,1.91-1.95,1.93-1.76.01-3.53-.05-5.29.02-1.15.05-1.53-.35-1.52-1.5.05-4.26.02-8.53.02-12.79Z"/>
</svg>